<svg width="1092" height="1260" viewBox="0 0 1092 1260" fill="none" xmlns="http://www.w3.org/2000/svg">
<path fill-rule="evenodd" clip-rule="evenodd" d="M2916.66 2015.49L2936.73 1839.04C2959.38 1664.74 3002.11 1313.98 2902.4 1134.48C2800.1 952.838 2557.96 944.594 2426.6 803.152C2295.24 661.71 2274.66 387.07 2095.82 302.713C1916.99 218.355 1577.31 322.133 1303.52 351.946C1029.73 381.758 819.237 335.458 767.004 98.8742C714.771 -137.709 820.795 -564.575 734.329 -765.25C650.445 -963.777 376.653 -933.964 241.049 -917.984L102.862 -904.152L577.631 -1475L652.516 -1412.72C724.818 -1352.59 872.004 -1230.17 1019.19 -1107.76C1168.96 -983.197 1316.15 -860.784 1463.33 -738.37C1610.52 -615.956 1757.71 -493.542 1904.89 -371.129C2052.08 -248.715 2201.85 -124.154 2349.03 -1.73982C2496.22 120.674 2643.41 243.088 2790.59 365.501C2937.78 487.915 3084.97 610.329 3234.74 734.89C3381.92 857.304 3529.11 979.718 3601.41 1039.85L3676.29 1102.13L2916.66 2015.49Z" stroke="#33FF00" stroke-opacity="0.07" stroke-width="88"/>
</svg>
