<svg width="610" height="1260" viewBox="0 0 610 1260" fill="none" xmlns="http://www.w3.org/2000/svg">
<path fill-rule="evenodd" clip-rule="evenodd" d="M-1006.81 -1007L-1087.84 -855.743C-1170.43 -707.007 -1334.04 -407.014 -1308.25 -224.232C-1280.89 -38.9285 -1065.69 26.643 -997.801 183.378C-929.915 340.114 -1009.35 588.013 -878.325 705.678C-747.302 823.343 -404.263 813.296 -146.967 852.82C110.33 892.345 283.444 983.963 246.102 1205.82C208.76 1427.67 -39.038 1779.75 -32.7285 1978.08C-27.9792 2173.89 229.317 2213.41 357.185 2231.91L486.614 2252.94L-144.754 2643.64L-190 2570.52C-233.686 2499.93 -322.618 2356.22 -411.549 2212.5C-502.041 2066.27 -590.973 1922.56 -679.904 1778.85C-768.836 1635.13 -857.768 1491.42 -946.7 1347.71C-1035.63 1204 -1126.12 1057.76 -1215.05 914.053C-1303.99 770.341 -1392.92 626.629 -1481.85 482.917C-1570.78 339.205 -1659.71 195.493 -1750.2 49.2596C-1839.14 -94.4524 -1928.07 -238.164 -1971.75 -308.76L-2017 -381.876L-1006.81 -1007Z" stroke="#33FF00" stroke-opacity="0.07" stroke-width="88"/>
</svg>
